<svg width="68" height="68" viewBox="0 0 68 68" fill="none" xmlns="http://www.w3.org/2000/svg">
<path d="M7.6 19.3209C7.05878 19.3053 6.66576 19.2705 6.3124 19.1924C3.69425 18.6138 1.6476 16.3397 1.12682 13.4307C1 12.7223 1 11.8704 1 10.1667C1 8.46293 1 7.61106 1.12682 6.90267C1.6476 3.99361 3.69425 1.71956 6.3124 1.14091C6.94996 1 7.71664 1 9.25 1H58.75C60.2834 1 61.05 1 61.6876 1.14091C64.3058 1.71956 66.3524 3.99361 66.8732 6.90267C67 7.61106 67 8.46293 67 10.1667C67 11.8704 67 12.7223 66.8732 13.4307C66.3524 16.3397 64.3058 18.6138 61.6876 19.1924C61.3342 19.2705 60.9412 19.3053 60.4 19.3209M27.4 37.6667H40.6M7.6 19.3333H60.4V49.4C60.4 55.5606 60.4 58.6409 59.321 60.9939C58.3718 63.0637 56.8573 64.7465 54.9945 65.8011C52.8768 67 50.1045 67 44.56 67H23.44C17.8955 67 15.1232 67 13.0055 65.8011C11.1427 64.7465 9.62818 63.0637 8.67904 60.9939C7.6 58.6409 7.6 55.5606 7.6 49.4V19.3333Z" stroke="black" stroke-linecap="round" stroke-linejoin="round"/>
</svg>
